<?xml version="1.0" encoding="utf-8"?>
<!-- Generator: Adobe Illustrator 24.0.0, SVG Export Plug-In . SVG Version: 6.00 Build 0)  -->
<svg version="1.1" id="Layer_1" xmlns="http://www.w3.org/2000/svg" xmlns:xlink="http://www.w3.org/1999/xlink" x="0px" y="0px"
	 viewBox="0 0 1894 274" style="enable-background:new 0 0 1894 274;" xml:space="preserve">
<style type="text/css">
	.st0{fill:#FFFFFF;}
	.st1{fill:#FEA744;}
	.st2{fill:#EA6532;}
	.st3{fill:none;}
</style>
<g>
	<g>
		<g>
			<path class="st0" d="M559.9,219.1h-39.2V52.4c0-1.1,1.1-2.5,3.1-2.5h33.7c1.1,0,2.5,0.8,3.1,1.7l75.9,163.2l80-163.2
				c0.3-0.8,1.9-1.7,2.8-1.7h34.2c2,0,2.8,1.4,2.8,2.5v217.9c0,1.1-0.8,2.5-2.8,2.5h-33.7c-1.7,0-3.1-1.4-3.1-2.5V139.1l-60.5,120.1
				c-0.3,0.8-1.9,1.7-2.8,1.7h-34.3c-0.8,0-2.2-0.8-2.5-1.7L559.8,142L559.9,219.1L559.9,219.1z"/>
			<path class="st0" d="M1123.7,82.5v-30c0-1.1,1.4-2.5,3.1-2.5h127.9c1.9,0,3.1,1.4,3.1,2.5v30c0,1.4-1.1,2.5-3.1,2.5h-127.9
				C1125.1,85,1123.7,83.9,1123.7,82.5z M1208.9,130.8v139.6c0,1.1-1.4,2.5-3.3,2.5h-32.8c-1.9,0-3.1-1.4-3.1-2.5V130.8H1208.9z"/>
			<path class="st0" d="M1333.6,272.9v-117V88.2V49.9h39.5v38.2v67.7v117h-39.5V272.9z"/>
			<path class="st0" d="M1550.9,272.9c-72.2,0-110.6-56-110.6-111.7c0-55.4,38.5-111.2,110.6-111.2c71,0,110.1,55.7,110.1,111.2
				C1661,216.9,1621.9,272.9,1550.9,272.9z M1550.9,86.2c-43.7,0-71.7,39.3-71.7,75.8c0,35.9,28,75,71.7,75
				c43.2,0,71.4-39.1,71.4-75C1622.3,125.4,1594.1,86.2,1550.9,86.2z"/>
			<path class="st0" d="M1893,52.4v217.9c0,1.1-1.1,2.5-3.1,2.5h-33.7c-0.6,0-2.2-0.3-2.5-0.8l-102.5-153v100.4h-39.5v-167
				c0-1.1,1.4-2.5,2.8-2.5h33.9c0.6,0,2.2,0.3,2.5,0.8l102.8,153V52.4c0-1.1,1.4-2.5,3.3-2.5h32.8C1891.9,49.9,1893,51.3,1893,52.4z
				"/>
		</g>
		<g>
			<path class="st1" d="M84.9,83.3H11.3c-2,0-3.1-1.4-3.1-2.5V52.4c0-1.4,1.1-2.5,3.1-2.5h126.2c2.5,0,3.9,1.7,2.8,3.9L94,135.3
				c29,8.6,45.4,34,45.4,69.1c0,48.5-34.8,68.5-71,68.5C32.5,272.9,1,247.8,1,208c0-1.4,1.4-2.5,3.1-2.5h29.4c1.4,0,2.8,1.1,2.8,2.5
				c0,15,19,30.7,32.1,30.7c18.9,0,34.9-21.8,34.9-36.9c0-18.9-17.9-32.6-35.8-34H44.3c-2.5,0-3.9-2-2.8-3.9L84.9,83.3z"/>
			<path class="st2" d="M319.7,270.4c0,1.1-1.4,2.5-3.3,2.5H191c-1.7,0-3.1-1.4-3.1-2.5v-33.2l77.7-107c5.3-7.2,7.5-13.9,7.5-19.8
				c0-11.4-8.6-19.5-19.5-19.5c-11.4,0-23.7,7-23.7,23.4c0,1.1-1.1,2.2-3.1,2.2h-33.7c-2,0-3.1-1.1-3.1-2.2
				c0-35.7,19.8-64.4,63.5-64.4c32.6,0,63.2,24.2,63.2,58.2c0,13.1-4.7,28.1-15.9,42.6L233.3,238h82.8c1.9,0,3.3,1.4,3.3,2.5v29.9
				H319.7z"/>
			<path class="st0" d="M450.1,270.4c0,1.1-0.8,2.5-2.8,2.5h-33.7c-1.9,0-2.8-1.4-2.8-2.5V97.7c-9.7,3.3-19.2,7.2-28.4,10.6
				c-1.4,0.3-3.1-0.3-3.6-1.7l-12.3-25.9c-0.6-1.4-0.3-2.5,1.4-3.3L418.3,50h28.9c2,0,2.8,1.4,2.8,2.5v217.8h0.1V270.4z"/>
		</g>
	</g>
	<g>
		<g>
			<path class="st3" d="M968.6,86.2c-43.7,0-71.7,39.3-71.7,75.8c0,35.9,28,75,71.7,75c43.2,0,71.4-39.1,71.4-75
				C1040,125.4,1011.8,86.2,968.6,86.2z"/>
			<path class="st0" d="M968.6,49.9c-26.9,0-49.1,7.7-66.4,20.3c0.1,1,0.2,2,0.2,3c0,13.6-11,24.6-24.6,24.6c-0.5,0-1,0-1.5-0.1
				c-12.1,18.7-18.3,41-18.3,63.3c0,55.7,38.5,111.7,110.6,111.7c71,0,110.1-56,110.1-111.7C1078.7,105.7,1039.6,49.9,968.6,49.9z
				 M968.6,237c-43.7,0-71.7-39.1-71.7-75c0-36.5,28-75.8,71.7-75.8c43.2,0,71.4,39.3,71.4,75.8C1040,198,1011.8,237,968.6,237z"/>
		</g>
		<g>
			<g>
				<circle class="st0" cx="877.8" cy="73.3" r="20.3"/>
			</g>
			<circle class="st0" cx="838.7" cy="91.2" r="14.2"/>
			<circle class="st0" cx="899.5" cy="44" r="7.6"/>
			<circle class="st0" cx="812.8" cy="54.6" r="7.6"/>
			<g>
				<circle class="st1" cx="923.6" cy="86.2" r="10.4"/>
			</g>
		</g>
		<g>
			<g>
				<path class="st2" d="M1015.6,151.3l-48-27.7c0.2,1.4,0.4,2.9,0.4,4.4c0,15.5-12.6,28.1-28.1,28.1c-2.6,0-5.2-0.4-7.6-1.1
					c0,21.2,0,44.4,0,44.4c0,8.2,8.8,13.2,15.9,9.2l67.5-39C1022.6,165.6,1022.6,155.4,1015.6,151.3z"/>
			</g>
			<circle class="st1" cx="884.9" cy="132.7" r="12"/>
			<circle class="st1" cx="893.5" cy="107.4" r="6"/>
			<circle class="st0" cx="846.6" cy="39.3" r="12"/>
			<circle class="st0" cx="857" cy="6.7" r="5.5"/>
		</g>
	</g>
	<g>
		<circle class="st1" cx="939.8" cy="128" r="24.1"/>
	</g>
</g>
</svg>
