<?xml version="1.0" encoding="utf-8"?>
<!-- Generator: Adobe Illustrator 27.0.0, SVG Export Plug-In . SVG Version: 6.00 Build 0)  -->
<svg version="1.1" id="Layer_1" xmlns="http://www.w3.org/2000/svg" xmlns:xlink="http://www.w3.org/1999/xlink" x="0px" y="0px"
	 viewBox="0 0 1500 1500" style="enable-background:new 0 0 1500 1500;" xml:space="preserve">
<style type="text/css">
	.st0{fill:#FFFFFF;}
	.st1{fill:#EA6532;}
	.st2{fill:#FEA744;}
</style>
<g id="Logo">
	<path id="O" class="st0" d="M750,309.39c-97.91,0-188.34,31.95-261.49,85.98c0.13,2.06,0.22,4.13,0.22,6.22
		c0,53.71-43.54,97.25-97.25,97.25c-1.16,0-2.3-0.05-3.44-0.09c-49.56,71.27-78.64,157.85-78.64,251.24
		c0,243.34,197.27,440.61,440.61,440.61c243.34,0,440.61-197.27,440.61-440.61S993.34,309.39,750,309.39z M572.6,411.41
		c22.64,0,40.99,18.35,40.99,40.99c0,22.64-18.35,40.99-40.99,40.99c-22.64,0-40.99-18.35-40.99-40.99
		C531.61,429.76,549.96,411.41,572.6,411.41z M453.53,512.7c13.2,0,23.9,10.7,23.9,23.9s-10.7,23.9-23.9,23.9s-23.9-10.7-23.9-23.9
		S440.33,512.7,453.53,512.7z M419.67,683.87c-26.18,0-47.41-21.23-47.41-47.41c0-26.18,21.23-47.41,47.41-47.41
		c26.18,0,47.41,21.23,47.41,47.41C467.08,662.64,445.86,683.87,419.67,683.87z M750,1047.6c-156.56,0-283.47-133.24-283.47-297.6
		c0-164.36,126.91-297.6,283.47-297.6s283.47,133.24,283.47,297.6C1033.47,914.36,906.56,1047.6,750,1047.6z"/>
	<path id="Triangle" class="st1" d="M935.12,709.37l-132.21-76.33l-56.72-32.75c0.9,5.68,1.38,11.5,1.38,17.43
		c0,61.17-49.59,110.77-110.77,110.77c-10.48,0-20.61-1.49-30.22-4.21v22.11v153.08c0,32.72,35.42,53.17,63.76,36.81l132.57-76.54
		l132.21-76.33C963.61,766.96,963.61,725.83,935.12,709.37z"/>
	<g id="O10_Big">
		<circle class="st2" cx="636.8" cy="617.66" r="95.22"/>
	</g>
	
		<ellipse id="O9" transform="matrix(0.9871 -0.1602 0.1602 0.9871 -96.5308 75.4427)" class="st2" cx="419.67" cy="636.46" rx="47.41" ry="47.41"/>
	<circle id="O8" class="st2" cx="453.53" cy="536.6" r="23.9"/>
	<g id="O7">
		<circle class="st2" cx="572.6" cy="452.4" r="40.99"/>
	</g>
	<circle id="B6" class="st0" cx="237.17" cy="472.12" r="56.16"/>
	<g id="B5">
		<circle class="st0" cx="391.48" cy="401.6" r="80.1"/>
	</g>
	<circle id="B4" class="st0" cx="477.43" cy="285.81" r="30.12"/>
	<circle id="B3" class="st0" cx="134.73" cy="327.79" r="30.12"/>
	<circle id="B2" class="st0" cx="268.42" cy="267.56" r="47.41"/>
	<circle id="B1" class="st0" cx="309.53" cy="138.03" r="21.87"/>
</g>
</svg>
